# xmcd
#
# Track frame offsets:
#	150
#	15020
#	32314
#	50861
#	68267
#	82448
#	102821
#	115233
#	132500
#	148963
#	166871
#	185805
#	201952
#	233553
#	249551
#	265630
#	284231
#	301739
#	316282
#
# Disc length: 4407
#
# Revision: 1
# Processed by: cddbd v1.5.1PL0 Copyright (c) Steve Scherf et al.
# Submitted via: FCDBAsst 2.0
# Normalized: r0:TDELIM( - )
#
DISCID=0c113513
DTITLE=Various Artist - Promo Country Feb 2000
DYEAR=1900
DGENRE=
TTITLE0=Clint Duet Black With Steve Wariner - Been There
TTITLE1=Faith Hill - The Way You Love Me
TTITLE2=Kenny Chesney - What I Need To Do
TTITLE3=Aaron Tippin - What This Country Needs
TTITLE4=Collin Raye - Couldn't Last A Moment
TTITLE5=John Michael Montgomery - Nothing Catches Jesus By Surprise
TTITLE6=Brad Paisley - Me Neither
TTITLE7=Yankee Grey - Another Nine Minutes
TTITLE8=Sawyer Brown - 800 Pound Jesus
TTITLE9=Ty Herndon - No Mercy
TTITLE10=The Wilkinsons - Jimmy's Got A Girlfriend
TTITLE11=Wade Hayes - "Up North (Down South,Back East,Out West)"
TTITLE12=Lace - Kiss 'em All
TTITLE13=Joe Diffie - It's Always Somethin'
TTITLE14=Gil Grand - Love Me Or Not (Here I Come)
TTITLE15=Tara Lyn Hart - Save Me
TTITLE16=The Johner Brothers - Maybe She'll Change Her Mind
TTITLE17=Chris Cummings - That'll Teach Her
TTITLE18=Trace Adkins - More
EXTD=
EXTT0=
EXTT1=
EXTT2=
EXTT3=
EXTT4=
EXTT5=
EXTT6=
EXTT7=
EXTT8=
EXTT9=
EXTT10=
EXTT11=
EXTT12=
EXTT13=
EXTT14=
EXTT15=
EXTT16=
EXTT17=
EXTT18=
PLAYORDER=
